<svg width="48" height="48" viewBox="0 0 48 48" fill="none" xmlns="http://www.w3.org/2000/svg">
<path d="M22 29C22 31.76 26.478 34 32 34C37.522 34 42 31.76 42 29M6 19C6 21.76 10.478 24 16 24C18.252 24 20.33 23.628 22 23M6 26C6 28.76 10.478 31 16 31C18.252 31 20.328 30.628 22 30M32 26C26.478 26 22 23.76 22 21C22 18.24 26.478 16 32 16C37.522 16 42 18.24 42 21C42 23.76 37.522 26 32 26Z" stroke="white" stroke-width="2" stroke-linecap="round" stroke-linejoin="round"/>
<path d="M6 11V33C6 35.76 10.478 38 16 38C18.252 38 20.328 37.628 22 37M22 37V21M22 37C22 39.76 26.478 42 32 42C37.522 42 42 39.76 42 37V21M26 17V11" stroke="white" stroke-width="2" stroke-linecap="round" stroke-linejoin="round"/>
<path d="M16 16C10.478 16 6 13.76 6 11C6 8.24 10.478 6 16 6C21.522 6 26 8.24 26 11C26 13.76 21.522 16 16 16Z" stroke="white" stroke-width="2" stroke-linecap="round" stroke-linejoin="round"/>
</svg>
