<svg width="200" height="104" viewBox="0 0 200 104" fill="none" xmlns="http://www.w3.org/2000/svg">
<rect width="8" height="8" fill="#DCDCE5"/>
<rect y="24" width="8" height="8" fill="#DCDCE5"/>
<rect y="48" width="8" height="8" fill="#DCDCE5"/>
<rect y="72" width="8" height="8" fill="#DCDCE5"/>
<rect y="96" width="8" height="8" fill="#DCDCE5"/>
<rect x="24" width="8" height="8" fill="#DCDCE5"/>
<rect x="24" y="24" width="8" height="8" fill="#DCDCE5"/>
<rect x="24" y="48" width="8" height="8" fill="#DCDCE5"/>
<rect x="24" y="72" width="8" height="8" fill="#DCDCE5"/>
<rect x="24" y="96" width="8" height="8" fill="#DCDCE5"/>
<rect x="48" width="8" height="8" fill="#DCDCE5"/>
<rect x="48" y="24" width="8" height="8" fill="#DCDCE5"/>
<rect x="48" y="48" width="8" height="8" fill="#DCDCE5"/>
<rect x="48" y="72" width="8" height="8" fill="#DCDCE5"/>
<rect x="48" y="96" width="8" height="8" fill="#DCDCE5"/>
<rect x="72" width="8" height="8" fill="#DCDCE5"/>
<rect x="72" y="24" width="8" height="8" fill="#DCDCE5"/>
<rect x="72" y="48" width="8" height="8" fill="#DCDCE5"/>
<rect x="72" y="72" width="8" height="8" fill="#DCDCE5"/>
<rect x="72" y="96" width="8" height="8" fill="#DCDCE5"/>
<rect x="96" width="8" height="8" fill="#DCDCE5"/>
<rect x="120" width="8" height="8" fill="#DCDCE5"/>
<rect x="144" width="8" height="8" fill="#DCDCE5"/>
<rect x="168" width="8" height="8" fill="#DCDCE5"/>
<rect x="192" width="8" height="8" fill="#DCDCE5"/>
<rect x="96" y="24" width="8" height="8" fill="#DCDCE5"/>
<rect x="120" y="24" width="8" height="8" fill="#DCDCE5"/>
<rect x="144" y="24" width="8" height="8" fill="#DCDCE5"/>
<rect x="168" y="24" width="8" height="8" fill="#DCDCE5"/>
<rect x="192" y="24" width="8" height="8" fill="#DCDCE5"/>
<rect x="96" y="48" width="8" height="8" fill="#DCDCE5"/>
<rect x="120" y="48" width="8" height="8" fill="#DCDCE5"/>
<rect x="144" y="48" width="8" height="8" fill="#DCDCE5"/>
<rect x="168" y="48" width="8" height="8" fill="#DCDCE5"/>
<rect x="192" y="48" width="8" height="8" fill="#DCDCE5"/>
<rect x="96" y="72" width="8" height="8" fill="#DCDCE5"/>
<rect x="120" y="72" width="8" height="8" fill="#DCDCE5"/>
<rect x="144" y="72" width="8" height="8" fill="#DCDCE5"/>
<rect x="168" y="72" width="8" height="8" fill="#DCDCE5"/>
<rect x="192" y="72" width="8" height="8" fill="#DCDCE5"/>
<rect x="96" y="96" width="8" height="8" fill="#DCDCE5"/>
<rect x="120" y="96" width="8" height="8" fill="#DCDCE5"/>
<rect x="144" y="96" width="8" height="8" fill="#DCDCE5"/>
<rect x="168" y="96" width="8" height="8" fill="#DCDCE5"/>
<rect x="192" y="96" width="8" height="8" fill="#DCDCE5"/>
</svg>
