<svg width="48" height="48" viewBox="0 0 48 48" fill="none" xmlns="http://www.w3.org/2000/svg">
<path d="M4 22L9.614 15.686C10.3646 14.8414 11.2855 14.1653 12.3162 13.7023C13.347 13.2394 14.4641 13 15.594 13H16M4 39H15L23 33C23 33 24.62 31.906 27 30C32 26 27 19.668 22 23C17.928 25.714 14 28 14 28" stroke="white" stroke-width="2" stroke-linecap="round" stroke-linejoin="round"/>
<path d="M16 27V14C16 12.9391 16.4214 11.9217 17.1716 11.1716C17.9217 10.4214 18.9391 10 20 10H40C41.0609 10 42.0783 10.4214 42.8284 11.1716C43.5786 11.9217 44 12.9391 44 14V26C44 27.0609 43.5786 28.0783 42.8284 28.8284C42.0783 29.5786 41.0609 30 40 30H27" stroke="white" stroke-width="2"/>
<path d="M39 20.02L39.02 19.998M21 20.02L21.02 19.998M30 24C28.9391 24 27.9217 23.5786 27.1716 22.8284C26.4214 22.0783 26 21.0609 26 20C26 18.9391 26.4214 17.9217 27.1716 17.1716C27.9217 16.4214 28.9391 16 30 16C31.0609 16 32.0783 16.4214 32.8284 17.1716C33.5786 17.9217 34 18.9391 34 20C34 21.0609 33.5786 22.0783 32.8284 22.8284C32.0783 23.5786 31.0609 24 30 24Z" stroke="white" stroke-width="2" stroke-linecap="round" stroke-linejoin="round"/>
</svg>
