<svg width="48" height="48" viewBox="0 0 48 48" fill="none" xmlns="http://www.w3.org/2000/svg">
<path d="M28.544 20.89L36 4M18.632 21.264L10 4M25.522 20.096L17.67 4M28.72 4L26.64 9M12 32C12 35.1826 13.2643 38.2348 15.5147 40.4853C17.7652 42.7357 20.8174 44 24 44C27.1826 44 30.2348 42.7357 32.4853 40.4853C34.7357 38.2348 36 35.1826 36 32C36 28.8174 34.7357 25.7652 32.4853 23.5147C30.2348 21.2643 27.1826 20 24 20C20.8174 20 17.7652 21.2643 15.5147 23.5147C13.2643 25.7652 12 28.8174 12 32Z" stroke="white" stroke-width="2" stroke-linecap="round" stroke-linejoin="round"/>
<path d="M21 30L25 27V37" stroke="white" stroke-width="2" stroke-linecap="round" stroke-linejoin="round"/>
</svg>
