<svg width="32" height="32" viewBox="0 0 32 32" fill="none" xmlns="http://www.w3.org/2000/svg">
<path d="M17.3346 28H5.33464C4.62739 28 3.94911 27.719 3.44902 27.219C2.94892 26.7189 2.66797 26.0406 2.66797 25.3333V6.66667C2.66797 5.95942 2.94892 5.28115 3.44902 4.78105C3.94911 4.28095 4.62739 4 5.33464 4H26.668C27.3752 4 28.0535 4.28095 28.5536 4.78105C29.0537 5.28115 29.3346 5.95942 29.3346 6.66667V18.6667" stroke="#EB3340" stroke-width="2" stroke-linecap="round"/>
<path d="M2.66797 9.33304H29.3346M6.66797 6.67971L6.6813 6.66504M10.668 6.67971L10.6813 6.66504M14.668 6.67971L14.6813 6.66504M26.8333 26.825C27.2092 26.4542 27.5079 26.0127 27.7122 25.5258C27.9166 25.039 28.0226 24.5165 28.024 23.9885C28.0254 23.4605 27.9223 22.9375 27.7206 22.4495C27.5189 21.9616 27.2226 21.5184 26.8488 21.1455C26.4749 20.7726 26.031 20.4775 25.5425 20.277C25.054 20.0766 24.5307 19.9749 24.0027 19.9777C23.4748 19.9805 22.9526 20.0878 22.4662 20.2934C21.9799 20.499 21.5391 20.7989 21.1693 21.1757C20.4301 21.9288 20.0185 22.9436 20.0241 23.9989C20.0297 25.0541 20.4521 26.0645 21.1993 26.8097C21.9464 27.5549 22.9578 27.9747 24.0131 27.9776C25.0684 27.9805 26.0821 27.5662 26.8333 26.825ZM26.8333 26.825L29.3346 29.333" stroke="#EB3340" stroke-width="2" stroke-linecap="round" stroke-linejoin="round"/>
</svg>
