<svg width="200" height="112" viewBox="0 0 200 112" fill="none" xmlns="http://www.w3.org/2000/svg">
<g clip-path="url(#clip0_1269_13900)">
<path d="M-108.889 121.334L21.778 -9.33301" stroke="#DDDDE7" stroke-width="2"/>
<path d="M-85.5547 121.334L45.112 -9.33301" stroke="#DDDDE7" stroke-width="2"/>
<path d="M-62.2227 121.334L68.444 -9.33301" stroke="#DDDDE7" stroke-width="2"/>
<path d="M-38.8887 121.334L91.778 -9.33301" stroke="#DDDDE7" stroke-width="2"/>
<path d="M-15.5547 121.334L115.112 -9.33301" stroke="#DDDDE7" stroke-width="2"/>
<path d="M7.77734 121.334L138.444 -9.33301" stroke="#DDDDE7" stroke-width="2"/>
<path d="M31.1113 121.334L161.778 -9.33301" stroke="#DDDDE7" stroke-width="2"/>
<path d="M54.4453 121.334L185.112 -9.33301" stroke="#DDDDE7" stroke-width="2"/>
<path d="M77.7773 121.334L208.444 -9.33301" stroke="#DDDDE7" stroke-width="2"/>
<path d="M101.111 121.334L231.778 -9.33301" stroke="#DDDDE7" stroke-width="2"/>
<path d="M124.445 121.334L255.112 -9.33301" stroke="#DDDDE7" stroke-width="2"/>
<path d="M147.777 121.334L278.444 -9.33301" stroke="#DDDDE7" stroke-width="2"/>
<path d="M171.111 121.334L301.778 -9.33301" stroke="#DDDDE7" stroke-width="2"/>
<path d="M194.445 121.334L325.112 -9.33301" stroke="#DDDDE7" stroke-width="2"/>
</g>
<defs>
<clipPath id="clip0_1269_13900">
<rect width="200" height="112" fill="white"/>
</clipPath>
</defs>
</svg>
