<svg width="140" height="32" viewBox="0 0 140 32" fill="none" xmlns="http://www.w3.org/2000/svg">
<path d="M0 7.70126L8.44028 3.21348V23.2272L13.9391 26.151L13.9404 26.1485L13.9418 26.151L19.4126 23.2421V3.21677L28.0639 7.81674V4.47101L19.6552 0L16.4585 1.69967V21.4671L13.9404 22.806L11.3944 21.4522V1.71595L8.17936 0.00649094L0 4.35553V7.70126Z" fill="#EB3340"/>
<path d="M2.63867 10.4472V25.9955L13.9327 32.0007L13.9378 31.9911L13.9429 32.0007L25.4274 25.8942V10.4301V7.08441V7.07951L22.4733 5.50879V24.1192L13.9378 28.6576L5.59277 24.2205V5.52588L2.63867 7.0966V7.1015V10.4472Z" fill="#1E2022"/>
<path d="M49.7225 9.01059L46.1655 23.7904H43.0082L39.4805 9.01059H42.3358L44.0509 17.3507C44.1158 17.6608 44.1841 18.0247 44.2555 18.4425C44.327 18.8537 44.392 19.2648 44.4504 19.6759C44.5089 20.0803 44.5544 20.4307 44.5869 20.7272C44.6258 20.4307 44.6746 20.0803 44.733 19.6759C44.798 19.2648 44.8662 18.8537 44.9377 18.4425C45.0156 18.0314 45.0871 17.6675 45.1521 17.3507L46.8867 9.01059H49.7225Z" fill="#EB3340"/>
<path d="M58.7561 18.0988C58.7561 18.8874 58.6781 19.6354 58.5222 20.3431C58.3728 21.0507 58.1324 21.6775 57.8011 22.2234C57.4762 22.7693 57.0475 23.2007 56.5147 23.5174C55.9885 23.8342 55.3453 23.9925 54.5852 23.9925C53.8771 23.9925 53.2632 23.8375 52.7434 23.5275C52.2237 23.2175 51.7949 22.7929 51.4571 22.2538C51.1193 21.7079 50.8659 21.0811 50.697 20.3734C50.5346 19.659 50.4533 18.9008 50.4533 18.0988C50.4533 16.9599 50.5963 15.9523 50.8821 15.0762C51.1745 14.1933 51.626 13.5025 52.2367 13.0038C52.8539 12.505 53.6497 12.2557 54.6242 12.2557C55.4623 12.2557 56.1899 12.4814 56.8071 12.933C57.4308 13.3845 57.9115 14.045 58.2493 14.9144C58.5872 15.7771 58.7561 16.8385 58.7561 18.0988ZM53.0845 18.1393C53.0845 18.9211 53.1365 19.5782 53.2404 20.1106C53.3509 20.643 53.5165 21.044 53.7374 21.3136C53.9648 21.5832 54.2539 21.718 54.6047 21.718C54.962 21.718 55.2479 21.5865 55.4623 21.3237C55.6832 21.0541 55.8423 20.6497 55.9398 20.1106C56.0437 19.5714 56.0957 18.9008 56.0957 18.0988C56.0957 17.3036 56.0437 16.6431 55.9398 16.1174C55.8423 15.5917 55.6832 15.1975 55.4623 14.9346C55.2479 14.6718 54.962 14.5404 54.6047 14.5404C54.072 14.5404 53.6854 14.8335 53.4451 15.4199C53.2047 16.0062 53.0845 16.9127 53.0845 18.1393Z" fill="#EB3340"/>
<path d="M65.3437 12.2557C65.4866 12.2557 65.6263 12.2691 65.7627 12.2961C65.8992 12.3163 66.0583 12.3534 66.2403 12.4073L66.0064 15.2783C65.8764 15.2244 65.7335 15.1874 65.5776 15.1671C65.4282 15.1469 65.2625 15.1368 65.0806 15.1368C64.7817 15.1368 64.5154 15.2042 64.2815 15.339C64.0476 15.4738 63.8495 15.6692 63.6871 15.9253C63.5311 16.1747 63.411 16.478 63.3265 16.8352C63.2485 17.1856 63.2096 17.5799 63.2096 18.018V23.7904H60.6174V12.468H62.6151L62.9854 14.3281H63.1121C63.255 13.9709 63.4337 13.6339 63.6481 13.3171C63.8625 13.0004 64.1126 12.7443 64.3984 12.5488C64.6843 12.3534 64.9994 12.2557 65.3437 12.2557Z" fill="#EB3340"/>
<path d="M71.181 21.6371C71.3629 21.6371 71.5545 21.6135 71.7559 21.5663C71.9638 21.5124 72.1782 21.4315 72.3991 21.3237V23.477C72.1132 23.6455 71.7982 23.7735 71.4538 23.8611C71.116 23.9487 70.7554 23.9925 70.3721 23.9925C69.7485 23.9925 69.2385 23.8645 68.8422 23.6084C68.4524 23.3456 68.1665 22.9513 67.9846 22.4256C67.8027 21.8932 67.7117 21.2226 67.7117 20.4139V14.7021H66.6398V13.2565L67.9164 12.5488L68.5303 10.0822H70.3039V12.468H72.2627V14.7021H70.3039V20.3128C70.3039 20.7576 70.3689 21.0912 70.4988 21.3136C70.6353 21.5293 70.8626 21.6371 71.181 21.6371Z" fill="#EB3340"/>
<path d="M76.4823 12.468V23.7904H73.8901V12.468H76.4823ZM75.1862 8.00977C75.6734 8.00977 76.0307 8.14456 76.2581 8.41414C76.4855 8.67698 76.5992 9.06113 76.5992 9.5666C76.5992 10.0586 76.479 10.436 76.2386 10.6988C76.0047 10.9549 75.6539 11.083 75.1862 11.083C74.7314 11.083 74.3806 10.9549 74.1337 10.6988C73.8868 10.436 73.7634 10.0586 73.7634 9.5666C73.7634 9.04765 73.8771 8.66013 74.1045 8.40403C74.3384 8.14119 74.6989 8.00977 75.1862 8.00977Z" fill="#EB3340"/>
<path d="M82.4365 23.9925C81.5269 23.9925 80.7668 23.7836 80.1561 23.3658C79.5519 22.9412 79.0972 22.3009 78.7918 21.445C78.493 20.5823 78.3435 19.4939 78.3435 18.1797C78.3435 17.034 78.4897 16.0163 78.7821 15.1267C79.0744 14.2303 79.5259 13.5294 80.1366 13.024C80.7473 12.5118 81.5269 12.2557 82.4754 12.2557C83.0147 12.2557 83.4987 12.3197 83.9274 12.4477C84.3627 12.5691 84.7688 12.7544 85.1456 13.0038L84.4244 15.157C84.1256 14.9683 83.83 14.8302 83.5376 14.7426C83.2518 14.6482 82.9627 14.601 82.6703 14.601C82.313 14.601 82.0077 14.7392 81.7543 15.0155C81.5009 15.2851 81.306 15.6861 81.1696 16.2185C81.0397 16.7442 80.9747 17.3979 80.9747 18.1797C80.9747 18.9548 81.0397 19.6017 81.1696 20.1207C81.306 20.6396 81.5009 21.0305 81.7543 21.2934C82.0142 21.5495 82.3325 21.6775 82.7093 21.6775C83.0796 21.6775 83.4532 21.6068 83.83 21.4652C84.2068 21.3237 84.5739 21.1181 84.9312 20.8486V23.1535C84.5803 23.4433 84.1873 23.6556 83.752 23.7904C83.3232 23.9252 82.8847 23.9925 82.4365 23.9925Z" fill="#EB3340"/>
<path d="M99.6508 9.01059V18.9278C99.6508 20.06 99.4823 21.0002 99.1453 21.7483C98.8084 22.4964 98.3126 23.0591 97.6581 23.4365C97.0035 23.8072 96.1935 23.9925 95.2279 23.9925C93.8216 23.9925 92.7393 23.5814 91.9811 22.7592C91.2294 21.9303 90.8535 20.6733 90.8535 18.9885V9.01059H93.5753V18.8874C93.5753 19.8242 93.7179 20.4947 94.0031 20.8991C94.2882 21.2967 94.7029 21.4956 95.2473 21.4956C95.6297 21.4956 95.944 21.4113 96.1902 21.2428C96.443 21.0676 96.6309 20.7879 96.754 20.4038C96.8836 20.0196 96.9484 19.5074 96.9484 18.8671V9.01059H99.6508Z" fill="#1E2022"/>
<path d="M106.864 12.2557C107.784 12.2557 108.49 12.6028 108.983 13.2969C109.482 13.9844 109.731 14.9852 109.731 16.2994V23.7904H107.146V17.0778C107.146 16.2825 107.068 15.6827 106.912 15.2783C106.757 14.8672 106.462 14.6617 106.028 14.6617C105.483 14.6617 105.101 14.938 104.881 15.4906C104.667 16.0433 104.56 16.9936 104.56 18.3415V23.7904H101.974V12.468H104.025L104.297 13.9136H104.463C104.625 13.5564 104.822 13.2565 105.056 13.0139C105.289 12.7645 105.558 12.5758 105.862 12.4477C106.167 12.3197 106.501 12.2557 106.864 12.2557Z" fill="#1E2022"/>
<path d="M114.553 12.468V23.7904H111.967V12.468H114.553ZM113.26 8.00977C113.746 8.00977 114.102 8.14456 114.329 8.41414C114.556 8.67698 114.669 9.06113 114.669 9.5666C114.669 10.0586 114.55 10.436 114.31 10.6988C114.076 10.9549 113.727 11.083 113.26 11.083C112.806 11.083 112.456 10.9549 112.21 10.6988C111.964 10.436 111.841 10.0586 111.841 9.5666C111.841 9.04765 111.954 8.66013 112.181 8.40403C112.414 8.14119 112.774 8.00977 113.26 8.00977Z" fill="#1E2022"/>
<path d="M120.444 21.6371C120.625 21.6371 120.816 21.6135 121.017 21.5663C121.224 21.5124 121.438 21.4315 121.659 21.3237V23.477C121.374 23.6455 121.059 23.7735 120.716 23.8611C120.379 23.9487 120.019 23.9925 119.637 23.9925C119.015 23.9925 118.506 23.8645 118.111 23.6084C117.722 23.3456 117.437 22.9513 117.255 22.4256C117.074 21.8932 116.983 21.2226 116.983 20.4139V14.7021H115.914V13.2565L117.187 12.5488L117.8 10.0822H119.569V12.468H121.523V14.7021H119.569V20.3128C119.569 20.7576 119.634 21.0912 119.763 21.3136C119.899 21.5293 120.126 21.6371 120.444 21.6371Z" fill="#1E2022"/>
<path d="M126.665 12.2759C127.481 12.2759 128.172 12.4848 128.735 12.9027C129.306 13.3205 129.737 13.9136 130.028 14.6819C130.32 15.4435 130.466 16.3466 130.466 17.3912V18.9076H125.275C125.288 19.8983 125.463 20.6295 125.8 21.1013C126.137 21.5663 126.652 21.7988 127.345 21.7988C127.805 21.7988 128.24 21.7382 128.648 21.6169C129.063 21.4888 129.503 21.2732 129.97 20.9699V23.2141C129.536 23.4837 129.072 23.6792 128.58 23.8005C128.087 23.9285 127.556 23.9925 126.986 23.9925C125.988 23.9925 125.174 23.76 124.546 23.295C123.917 22.8232 123.457 22.156 123.165 21.2934C122.874 20.424 122.728 19.3928 122.728 18.1999C122.728 16.9262 122.874 15.8512 123.165 14.9751C123.464 14.0922 123.904 13.4216 124.487 12.9633C125.071 12.505 125.797 12.2759 126.665 12.2759ZM126.723 14.3887C126.296 14.3887 125.955 14.5909 125.703 14.9953C125.45 15.3929 125.314 16.0466 125.294 16.9565H128.065C128.065 16.4241 128.013 15.9658 127.909 15.5816C127.805 15.1975 127.653 14.9043 127.452 14.7021C127.251 14.4932 127.008 14.3887 126.723 14.3887Z" fill="#1E2022"/>
<path d="M135.054 23.9925C134.004 23.9925 133.204 23.4736 132.653 22.4357C132.102 21.3978 131.827 19.9589 131.827 18.1191C131.827 16.2724 132.102 14.8335 132.653 13.8024C133.204 12.7712 133.975 12.2557 134.966 12.2557C135.303 12.2557 135.615 12.3163 135.9 12.4376C136.191 12.5589 136.457 12.7443 136.697 12.9936C136.943 13.2363 137.157 13.5429 137.338 13.9136H137.436C137.416 13.4755 137.397 13.1015 137.377 12.7915C137.364 12.4747 137.358 12.2085 137.358 11.9928V8.06031H139.943V23.7904H137.873L137.513 22.5469H137.358C137.15 22.8839 136.933 23.1602 136.706 23.3759C136.486 23.5848 136.243 23.7398 135.977 23.8409C135.712 23.942 135.404 23.9925 135.054 23.9925ZM135.822 21.7382C136.34 21.7382 136.726 21.4753 136.979 20.9497C137.231 20.424 137.358 19.5984 137.358 18.4729V17.8259C137.358 16.7071 137.235 15.8916 136.988 15.3794C136.749 14.8605 136.36 14.601 135.822 14.601C135.355 14.601 135.009 14.8976 134.782 15.4906C134.561 16.077 134.451 16.9464 134.451 18.0988C134.451 19.3187 134.568 20.2319 134.801 20.8385C135.034 21.4383 135.375 21.7382 135.822 21.7382Z" fill="#1E2022"/>
</svg>
