<svg width="30" height="30" viewBox="0 0 30 30" fill="none" xmlns="http://www.w3.org/2000/svg">
<path d="M8 29H22" stroke="#EB3340" stroke-width="2" stroke-linecap="round" stroke-linejoin="round"/>
<path d="M1 22.1765V3.82353C1 3.07468 1.295 2.35651 1.8201 1.82699C2.3452 1.29748 3.05739 1 3.8 1H26.2C26.9426 1 27.6548 1.29748 28.1799 1.82699C28.705 2.35651 29 3.07468 29 3.82353V22.1765C29 22.9253 28.705 23.6435 28.1799 24.173C27.6548 24.7025 26.9426 25 26.2 25H3.8C3.05739 25 2.3452 24.7025 1.8201 24.173C1.295 23.6435 1 22.9253 1 22.1765Z" stroke="#EB3340" stroke-width="2"/>
<path d="M15 8V12.2M15 17.814L15.014 17.7986" stroke="#EB3340" stroke-width="2" stroke-linecap="round" stroke-linejoin="round"/>
</svg>
