<svg width="32" height="32" viewBox="0 0 32 32" fill="none" xmlns="http://www.w3.org/2000/svg">
<path d="M28 2.66699L26.6667 4.00033M4 2.66699L5.33333 4.00033M28 21.3337L26.6667 20.0003M4 21.3337L5.33333 20.0003M12 24.0003H20M13.3333 28.0003H18.6667M16 4.00033C10.6667 4.00033 7.936 6.60033 8 10.667C8.03067 12.6497 8.66667 14.0003 10 15.3337C11.3333 16.667 12 17.3337 12 20.0003H20C20 17.3337 20.6667 16.667 22 15.3337C23.3333 14.0003 23.9693 12.6497 24 10.667C24.064 6.60033 21.3333 4.00033 16 4.00033Z" stroke="#EB3340" stroke-width="2" stroke-linecap="round" stroke-linejoin="round"/>
</svg>
